# xmcd
#
# Track frame offsets:
#	150
#	47174
#	70764
#	96025
#	118475
#	182148
#	197343
#	221621
#	260712
#	290250
#
# Disc length: 4259 seconds
#
# Revision: 1
# Processed by: cddbd v1.5.1PL0 Copyright (c) Steve Scherf et al.
# Submitted via: audiograbber 1.83.01
#
DISCID=9910a10a
DTITLE=Johnny Winter - 2004-07-23 - Starland Ballroom,Sayerville, NJ
DYEAR=1900
DGENRE=
TTITLE0=Hideaway
TTITLE1=Sugar Coated Love
TTITLE2=She Likes To Boogie Real Low
TTITLE3=Start All Over Again
TTITLE4=Black Jack
TTITLE5=Tore Down
TTITLE6=Lone Wolf
TTITLE7=Intro and Hoochie Coochie Man
TTITLE8=Johnny Guitar
TTITLE9=(Encore) - Mojo Boogie
EXTD=
EXTT0=
EXTT1=
EXTT2=
EXTT3=
EXTT4=
EXTT5=
EXTT6=
EXTT7=
EXTT8=
EXTT9=
PLAYORDER=
